<svg xmlns="http://www.w3.org/2000/svg" viewBox="0 0 830 220"><style>text{font-family:Menlo,Consolas,&apos;DejaVu Sans Mono&apos;,monospace;font-size:7px}text.desc{font-family:&quot;Helvetica Neue&quot;,Helvetica,Arial,sans-serif;font-size:10px}text.title{font-size:15px}g text,text.title{text-anchor:middle}line,rect{stroke:#000}rect{width:40px;height:20px;fill:#ccc!important}rect.bg{stroke-width:0;width:100%;height:100%}rect.bg,rect.white{fill:#fff!important}rect.orange{fill:#f93!important}rect.yellow{fill:#ff3!important}rect.green{fill:#3e3!important}rect.blue{fill:#6df!important}rect.double{width:80px}rect.quad{width:160px}line.dash,rect{stroke-width:1}line.dash{stroke-dasharray:2,2}</style><rect x="0" y="0" class="bg"/><rect x="50" y="15"/><text x="95" y="27" class="desc">4 bytes</text><rect x="170" y="15" class="double"/><text x="255" y="27" class="desc">8 bytes</text><text x="410" y="50" class="title desc">ipc_kmsg</text><g><g transform="translate(10 70) translate(0 0)"><rect x="0" y="0"/><rect x="40" y="0" class="white"/><rect x="80" y="0" class="double"/><rect x="160" y="0" class="double"/><rect x="240" y="0" class="double blue"/><rect x="320" y="0" class="double"/><rect x="400" y="0" class="double"/><rect x="480" y="0"/><rect x="520" y="0"/><rect x="560" y="0" class="double"/><rect x="640" y="0" class="quad"/><line x1="720" x2="720" y1="0" y2="20" class="dash"/><line x1="800" x2="810" y1="0" y2="0" class="dash"/><line x1="800" x2="810" y1="20" y2="20" class="dash"/></g><g><text x="20" y="0" transform="translate(10 70) translate(0 30)">ikm_size</text><text x="60" y="0" transform="translate(10 70) translate(0 30)">(padding)</text><text x="120" y="0" transform="translate(10 70) translate(0 30)">ikm_next</text><text x="200" y="0" transform="translate(10 70) translate(0 30)">ikm_prev</text><text x="280" y="0" transform="translate(10 70) translate(0 30)">ikm_header</text><text x="360" y="0" transform="translate(10 70) translate(0 30)">ikm_prealloc</text><text x="440" y="0" transform="translate(10 70) translate(0 30)">ikm_voucher</text><text x="500" y="0" transform="translate(10 70) translate(0 30)">ikm_qos</text><text x="540" y="10" transform="translate(10 70) translate(0 30)">ikm_qos_override</text><text x="600" y="0" transform="translate(10 70) translate(0 30)">ikm_importance</text><text x="720" y="0" transform="translate(10 70) translate(0 30)">ikm_inheritance</text></g></g><text x="410" y="145" class="title desc">EvGlobals</text><g><g transform="translate(50 165) translate(0 0)"><rect x="0" y="0" class="yellow"/><rect x="40" y="0"/><rect x="80" y="0"/><rect x="120" y="0"/><rect x="160" y="0"/><rect x="200" y="0" class="green"/><rect x="240" y="0"/><rect x="280" y="0" class="double"/><rect x="360" y="0" class="double"/><rect x="440" y="0"/><rect x="480" y="0"/><rect x="520" y="0"/><rect x="560" y="0" class="double orange"/><rect x="640" y="0" class="double orange"/><line x1="720" x2="730" y1="0" y2="0" class="dash"/><line x1="720" x2="730" y1="20" y2="20" class="dash"/></g><g><text x="20" y="0" transform="translate(50 165) translate(0 30)">cursorSema</text><text x="60" y="0" transform="translate(50 165) translate(0 30)">eNum</text><text x="100" y="0" transform="translate(50 165) translate(0 30)">buttons</text><text x="140" y="0" transform="translate(50 165) translate(0 30)">eventFlags</text><text x="180" y="10" transform="translate(50 165) translate(0 30)">VertRetraceClock</text><text x="220" y="0" transform="translate(50 165) translate(0 30)">cursorLoc</text><text x="260" y="0" transform="translate(50 165) translate(0 30)">frame</text><text x="320" y="0" transform="translate(50 165) translate(0 30)">workBounds</text><text x="400" y="0" transform="translate(50 165) translate(0 30)">mouseRect</text><text x="460" y="0" transform="translate(50 165) translate(0 30)">version</text><text x="500" y="10" transform="translate(50 165) translate(0 30)">structSize</text><text x="540" y="0" transform="translate(50 165) translate(0 30)">lastFrame</text><text x="600" y="0" transform="translate(50 165) translate(0 30)">screenCursorFixed</text><text x="680" y="0" transform="translate(50 165) translate(0 30)">desktopCursorFixed</text></g></g></svg>