<svg xmlns="http://www.w3.org/2000/svg" viewBox="0 0 830 90"><style>text{font-family:Menlo,Consolas,&apos;DejaVu Sans Mono&apos;,monospace;font-size:7px}g text{text-anchor:middle}text.red{fill:red}line,rect{stroke:#000}rect{width:40px;height:20px;fill:#ccc!important}rect.bg{stroke-width:0;width:100%;height:100%}rect.bg,rect.white{fill:#fff!important}rect.red{fill:#e33!important}rect.orange{fill:#f93!important}rect.yellow{fill:#ff3!important}rect.green{fill:#3e3!important}rect.blue{fill:#6df!important}rect.double{width:80px}line.dash,rect{stroke-width:1}line.dash{stroke-dasharray:2,2}</style><rect x="0" y="0" class="bg"/><g><g transform="translate(10 15) translate(0 10)"><rect x="0" y="0"/><rect x="40" y="0" class="white"/><rect x="80" y="0" class="double"/><rect x="160" y="0" class="double"/><rect x="240" y="0" class="double blue"/><rect x="320" y="0" class="double"/><rect x="400" y="0" class="double"/><rect x="480" y="0"/><rect x="520" y="0"/><rect x="560" y="0" stroke-dasharray="40 20 60"/><rect x="600" y="0" stroke-dasharray="100 20" class="red"/><rect x="640" y="0" stroke-dasharray="120 20 140" class="red" style="width:120px"/><rect x="760" y="0" stroke-dasharray="100 20"/><line x1="720" x2="720" y1="0" y2="20" class="dash"/><line x1="800" x2="810" y1="0" y2="0" class="dash"/><line x1="800" x2="810" y1="20" y2="20" class="dash"/><text x="60" y="13" class="red">0x0</text></g><g><text x="20" y="0" transform="translate(10 15) translate(0 5)">ikm_size</text><text x="60" y="0" transform="translate(10 15) translate(0 5)">(padding)</text><text x="120" y="0" transform="translate(10 15) translate(0 5)">ikm_next</text><text x="200" y="0" transform="translate(10 15) translate(0 5)">ikm_prev</text><text x="280" y="0" transform="translate(10 15) translate(0 5)">ikm_header</text><text x="600" y="0" transform="translate(10 15) translate(0 5)">ikm_importance</text><text x="720" y="0" transform="translate(10 15) translate(0 5)">ikm_inheritance</text></g></g><g><g transform="translate(50 45) translate(0 0)"><rect x="0" y="0" class="yellow"/><rect x="40" y="0"/><rect x="80" y="0"/><rect x="120" y="0"/><rect x="160" y="0"/><rect x="200" y="0" class="green"/><rect x="240" y="0"/><rect x="280" y="0" class="double"/><rect x="360" y="0" class="double"/><rect x="440" y="0"/><rect x="480" y="0"/><rect x="520" y="0"/><rect x="560" y="0" class="double orange"/><rect x="640" y="0" class="double orange"/><line x1="720" x2="730" y1="0" y2="0" class="dash"/><line x1="720" x2="730" y1="20" y2="20" class="dash"/></g><g><text x="20" y="0" transform="translate(50 45) translate(0 30)">cursorSema</text><text x="220" y="0" transform="translate(50 45) translate(0 30)">cursorLoc</text><text x="600" y="0" transform="translate(50 45) translate(0 30)">screenCursorFixed</text><text x="680" y="0" transform="translate(50 45) translate(0 30)">desktopCursorFixed</text></g></g></svg>