<svg xmlns="http://www.w3.org/2000/svg" viewBox="0 0 300 200"><style>text{font-family:Menlo,Consolas,&apos;DejaVu Sans Mono&apos;,monospace;font-size:7px}text.desc{font-family:&quot;Helvetica Neue&quot;,Helvetica,Arial,sans-serif;font-size:10px}text.title{font-size:15px}g text,text.title{text-anchor:middle}line,rect{stroke:#000}rect{width:40px;height:20px;fill:#ccc!important}rect.bg{stroke-width:0;width:100%;height:100%}rect.bg,rect.white{fill:#fff!important}rect.green{fill:#3e3!important}line.dash,rect{stroke-width:1}line.dash{stroke-dasharray:2,2}</style><rect x="0" y="0" class="bg"/><text x="150" y="30" class="title desc">Initialisation</text><g><g transform="translate(10 50) translate(0 0)"><rect x="0" y="0"/><text x="20" y="13">0</text><rect x="40" y="0"/><text x="60" y="13">13</text><rect x="80" y="0"/><text x="100" y="13">0</text><rect x="120" y="0" class="green"/><text x="140" y="13">0</text><rect x="160" y="0" class="white"/><rect x="200" y="0"/><text x="220" y="13">???</text><rect x="240" y="0" class="white"/><line x1="280" x2="290" y1="0" y2="0" class="dash"/><line x1="280" x2="290" y1="20" y2="20" class="dash"/></g><g><text x="20" y="0" transform="translate(10 50) translate(0 30)">cursorSema</text><text x="60" y="0" transform="translate(10 50) translate(0 30)">eNum</text><text x="100" y="0" transform="translate(10 50) translate(0 30)">buttons</text><text x="140" y="0" transform="translate(10 50) translate(0 30)">eventFlags</text><text x="180" y="10" transform="translate(10 50) translate(0 30)">VertRetraceClock</text><text x="220" y="0" transform="translate(10 50) translate(0 30)">cursorLoc</text><text x="260" y="0" transform="translate(10 50) translate(0 30)">frame</text></g></g><text x="150" y="125" class="title desc">Kernel writes</text><g><g transform="translate(10 145) translate(0 0)"><rect x="0" y="0"/><text x="20" y="13">???</text><rect x="40" y="0" class="white"/><rect x="80" y="0" class="white"/><rect x="120" y="0"/><text x="140" y="13">???</text><rect x="160" y="0" class="white"/><rect x="200" y="0"/><text x="220" y="13">???</text><rect x="240" y="0"/><text x="260" y="13">???</text><line x1="280" x2="290" y1="0" y2="0" class="dash"/><line x1="280" x2="290" y1="20" y2="20" class="dash"/></g><g><text x="20" y="0" transform="translate(10 145) translate(0 30)">cursorSema</text><text x="60" y="0" transform="translate(10 145) translate(0 30)">eNum</text><text x="100" y="0" transform="translate(10 145) translate(0 30)">buttons</text><text x="140" y="0" transform="translate(10 145) translate(0 30)">eventFlags</text><text x="180" y="10" transform="translate(10 145) translate(0 30)">VertRetraceClock</text><text x="220" y="0" transform="translate(10 145) translate(0 30)">cursorLoc</text><text x="260" y="0" transform="translate(10 145) translate(0 30)">frame</text></g></g></svg>