<svg xmlns="http://www.w3.org/2000/svg" viewBox="0 0 980 60"><style>text{font-family:Menlo,Consolas,&apos;DejaVu Sans Mono&apos;,monospace;font-size:7px}g text{text-anchor:middle}line,rect{stroke:#000}rect{width:40px;height:20px;fill:#ccc!important}rect.bg{stroke-width:0;width:100%;height:100%}rect.bg,rect.white{fill:#fff!important}rect.double{width:80px}line.dash,rect{stroke-width:1}line.dash{stroke-dasharray:2,2}</style><rect x="0" y="0" class="bg"/><g><g transform="translate(10 15) translate(0 0)"><rect x="0" y="0"/><text x="20" y="13">i+1</text><rect x="40" y="0"/><text x="60" y="13">0</text><rect x="80" y="0"/><text x="100" y="13">0</text><rect x="120" y="0" class="double white"/><line x1="160" x2="160" y1="0" y2="20" class="dash"/><rect x="200" y="0" class="double"/><text x="240" y="13">0</text><rect x="280" y="0"/><text x="300" y="13">0</text><rect x="320" y="0" class="white"/><rect x="360" y="0" class="double white"/><rect x="440" y="0" class="white"/><rect x="480" y="0" class="white" style="width:480px"/></g><g><text x="20" y="0" transform="translate(10 15) translate(0 30)">next</text><text x="60" y="0" transform="translate(10 15) translate(0 30)">sema</text><text x="100" y="0" transform="translate(10 15) translate(0 30)">type</text><text x="160" y="0" transform="translate(10 15) translate(0 30)">location</text><text x="240" y="0" transform="translate(10 15) translate(0 30)">time</text><text x="300" y="0" transform="translate(10 15) translate(0 30)">flags</text><text x="340" y="0" transform="translate(10 15) translate(0 30)">window</text><text x="400" y="0" transform="translate(10 15) translate(0 30)">service_id</text><text x="460" y="0" transform="translate(10 15) translate(0 30)">ext_pid</text><text x="720" y="0" transform="translate(10 15) translate(0 30)">data (48 bytes)</text></g></g></svg>