<svg xmlns="http://www.w3.org/2000/svg" viewBox="0 0 830 120"><style>text{font-family:Menlo,Consolas,&apos;DejaVu Sans Mono&apos;,monospace;font-size:7px}g text{text-anchor:middle}line,rect{stroke:#000}rect{width:40px;height:20px;fill:#ccc!important}rect.bg{stroke-width:0;width:100%;height:100%}rect.bg,rect.white{fill:#fff!important}rect.red{fill:#e33!important}rect.double{width:80px}line.dash,rect{stroke-width:1}line.dash{stroke-dasharray:2,2}</style><rect x="0" y="0" class="bg"/><g><g transform="translate(10 15) translate(0 10)"><rect x="0" y="0"/><rect x="40" y="0" class="white"/><rect x="80" y="0" class="double"/><rect x="160" y="0" class="double"/><rect x="240" y="0" class="double"/><rect x="320" y="0" class="double"/><rect x="400" y="0" class="double"/><rect x="480" y="0"/><rect x="520" y="0"/><rect x="560" y="0" stroke-dasharray="40 20 60"/><rect x="600" y="0" stroke-dasharray="100 20" class="red"/><rect x="640" y="0" stroke-dasharray="120 20 140" class="red" style="width:120px"/><rect x="760" y="0" stroke-dasharray="100 20"/><line x1="720" x2="720" y1="0" y2="20" class="dash"/><line x1="800" x2="810" y1="0" y2="0" class="dash"/><line x1="800" x2="810" y1="20" y2="20" class="dash"/></g><g><text x="20" y="0" transform="translate(10 15) translate(0 5)">ikm_size</text><text x="60" y="0" transform="translate(10 15) translate(0 5)">(padding)</text><text x="120" y="0" transform="translate(10 15) translate(0 5)">ikm_next</text><text x="200" y="0" transform="translate(10 15) translate(0 5)">ikm_prev</text><text x="280" y="0" transform="translate(10 15) translate(0 5)">ikm_header</text><text x="600" y="0" transform="translate(10 15) translate(0 5)">ikm_importance</text><text x="720" y="0" transform="translate(10 15) translate(0 5)">ikm_inheritance</text></g></g><g><g transform="translate(-310 45) translate(0 0)"><rect x="0" y="0"/><text x="20" y="13">i+1</text><rect x="40" y="0"/><text x="60" y="13">0</text><rect x="80" y="0"/><text x="100" y="13">0</text><rect x="120" y="0" class="double white"/><line x1="160" x2="160" y1="0" y2="20" class="dash"/><rect x="200" y="0" class="double"/><text x="240" y="13">0</text><rect x="280" y="0"/><text x="300" y="13">0</text><rect x="320" y="0" class="white"/><rect x="360" y="0" class="double white"/><rect x="440" y="0" class="white"/><rect x="480" y="0" class="white" style="width:480px"/></g></g><g><g transform="translate(650 45) translate(0 0)"><rect x="0" y="0"/><text x="20" y="13">i+1</text><rect x="40" y="0"/><text x="60" y="13">0</text><rect x="80" y="0"/><text x="100" y="13">0</text><rect x="120" y="0" class="double white"/><line x1="160" x2="160" y1="0" y2="20" class="dash"/><rect x="200" y="0" class="double"/><text x="240" y="13">0</text><rect x="280" y="0"/><text x="300" y="13">0</text><rect x="320" y="0" class="white"/><rect x="360" y="0" class="double white"/><rect x="440" y="0" class="white"/><rect x="480" y="0" class="white" style="width:480px"/></g></g><g><g transform="translate(-350 65) translate(0 0)"><rect x="0" y="0"/><text x="20" y="13">i+1</text><rect x="40" y="0"/><text x="60" y="13">0</text><rect x="80" y="0"/><text x="100" y="13">0</text><rect x="120" y="0" class="double white"/><line x1="160" x2="160" y1="0" y2="20" class="dash"/><rect x="200" y="0" class="double"/><text x="240" y="13">0</text><rect x="280" y="0"/><text x="300" y="13">0</text><rect x="320" y="0" class="white"/><rect x="360" y="0" class="double white"/><rect x="440" y="0" class="white"/><rect x="480" y="0" class="white" style="width:480px"/></g></g><g><g transform="translate(610 65) translate(0 0)"><rect x="0" y="0"/><text x="20" y="13">i+1</text><rect x="40" y="0"/><text x="60" y="13">0</text><rect x="80" y="0"/><text x="100" y="13">0</text><rect x="120" y="0" class="double white"/><line x1="160" x2="160" y1="0" y2="20" class="dash"/><rect x="200" y="0" class="double"/><text x="240" y="13">0</text><rect x="280" y="0"/><text x="300" y="13">0</text><rect x="320" y="0" class="white"/><rect x="360" y="0" class="double white"/><rect x="440" y="0" class="white"/><rect x="480" y="0" class="white" style="width:480px"/></g></g><g><g transform="translate(-430 85) translate(0 0)"><rect x="0" y="0"/><text x="20" y="13">i+1</text><rect x="40" y="0"/><text x="60" y="13">0</text><rect x="80" y="0"/><text x="100" y="13">0</text><rect x="120" y="0" class="double white"/><line x1="160" x2="160" y1="0" y2="20" class="dash"/><rect x="200" y="0" class="double"/><text x="240" y="13">0</text><rect x="280" y="0"/><text x="300" y="13">0</text><rect x="320" y="0" class="white"/><rect x="360" y="0" class="double white"/><rect x="440" y="0" class="white"/><rect x="480" y="0" class="white" style="width:480px"/></g></g><g><g transform="translate(530 85) translate(0 0)"><rect x="0" y="0"/><text x="20" y="13">i+1</text><rect x="40" y="0"/><text x="60" y="13">0</text><rect x="80" y="0"/><text x="100" y="13">0</text><rect x="120" y="0" class="double white"/><line x1="160" x2="160" y1="0" y2="20" class="dash"/><rect x="200" y="0" class="double"/><text x="240" y="13">0</text><rect x="280" y="0"/><text x="300" y="13">0</text><rect x="320" y="0" class="white"/><rect x="360" y="0" class="double white"/><rect x="440" y="0" class="white"/><rect x="480" y="0" class="white" style="width:480px"/></g></g></svg>